<svg width="18" height="18" viewBox="0 0 18 18" fill="none" xmlns="http://www.w3.org/2000/svg">
<path d="M7.39984 8.05008C7.4415 7.77508 7.53317 7.53341 7.64984 7.32508C7.7665 7.11675 7.93317 6.94175 8.1415 6.80841C8.3415 6.68341 8.5915 6.62508 8.89984 6.61675C9.0915 6.62508 9.2665 6.65842 9.42484 6.72508C9.5915 6.80008 9.7415 6.90008 9.85817 7.02508C9.97484 7.15008 10.0665 7.30008 10.1415 7.46675C10.2165 7.63341 10.2498 7.81675 10.2582 8.00008H11.7498C11.7332 7.60842 11.6582 7.25008 11.5165 6.92508C11.3748 6.60008 11.1832 6.31675 10.9332 6.08342C10.6832 5.85008 10.3832 5.66675 10.0332 5.53341C9.68317 5.40008 9.29984 5.34175 8.87484 5.34175C8.33317 5.34175 7.85817 5.43341 7.45817 5.62508C7.05817 5.81675 6.72484 6.06675 6.45817 6.39175C6.1915 6.71675 5.9915 7.09175 5.8665 7.52508C5.7415 7.95841 5.6665 8.40841 5.6665 8.89175V9.11675C5.6665 9.60008 5.73317 10.0501 5.85817 10.4834C5.98317 10.9167 6.18317 11.2917 6.44984 11.6084C6.7165 11.9251 7.04984 12.1834 7.44984 12.3667C7.84984 12.5501 8.32484 12.6501 8.8665 12.6501C9.25817 12.6501 9.62484 12.5834 9.9665 12.4584C10.3082 12.3334 10.6082 12.1584 10.8665 11.9334C11.1248 11.7084 11.3332 11.4501 11.4832 11.1501C11.6332 10.8501 11.7248 10.5334 11.7332 10.1917H10.2415C10.2332 10.3667 10.1915 10.5251 10.1165 10.6751C10.0415 10.8251 9.9415 10.9501 9.8165 11.0584C9.6915 11.1667 9.54984 11.2501 9.38317 11.3084C9.22484 11.3667 9.05817 11.3834 8.88317 11.3917C8.58317 11.3834 8.33317 11.3251 8.1415 11.2001C7.93317 11.0667 7.7665 10.8917 7.64984 10.6834C7.53317 10.4751 7.4415 10.2251 7.39984 9.95008C7.35817 9.67508 7.33317 9.39175 7.33317 9.11675V8.89175C7.33317 8.60008 7.35817 8.32508 7.39984 8.05008ZM8.99984 0.666748C4.39984 0.666748 0.666504 4.40008 0.666504 9.00008C0.666504 13.6001 4.39984 17.3334 8.99984 17.3334C13.5998 17.3334 17.3332 13.6001 17.3332 9.00008C17.3332 4.40008 13.5998 0.666748 8.99984 0.666748ZM8.99984 15.6667C5.32484 15.6667 2.33317 12.6751 2.33317 9.00008C2.33317 5.32508 5.32484 2.33341 8.99984 2.33341C12.6748 2.33341 15.6665 5.32508 15.6665 9.00008C15.6665 12.6751 12.6748 15.6667 8.99984 15.6667Z" fill="#676767"/>
</svg>
