<svg width="21" height="13" viewBox="0 0 21 13" fill="none" xmlns="http://www.w3.org/2000/svg">
<path d="M10.5 0.187012C6.125 0.187012 2.38875 2.77868 0.875 6.43701C2.38875 10.0953 6.125 12.687 10.5 12.687C14.875 12.687 18.6112 10.0953 20.125 6.43701C18.6112 2.77868 14.875 0.187012 10.5 0.187012ZM10.5 10.6037C8.085 10.6037 6.125 8.73701 6.125 6.43701C6.125 4.13701 8.085 2.27035 10.5 2.27035C12.915 2.27035 14.875 4.13701 14.875 6.43701C14.875 8.73701 12.915 10.6037 10.5 10.6037ZM10.5 3.93701C9.0475 3.93701 7.875 5.05368 7.875 6.43701C7.875 7.82034 9.0475 8.93701 10.5 8.93701C11.9525 8.93701 13.125 7.82034 13.125 6.43701C13.125 5.05368 11.9525 3.93701 10.5 3.93701Z" fill="#130F26"/>
</svg>
