<svg width="18" height="14" viewBox="0 0 18 14" fill="none" xmlns="http://www.w3.org/2000/svg">
<path fill-rule="evenodd" clip-rule="evenodd" d="M9.00262 0.333221C12.4493 0.335721 15.5443 2.75155 17.2826 6.79655C17.351 6.95405 17.351 7.13239 17.2826 7.28989C15.5451 11.3357 12.4493 13.7516 9.00262 13.7541H8.99762C5.55095 13.7516 2.45595 11.3357 0.717617 7.28989C0.650117 7.13239 0.650117 6.95405 0.717617 6.79655C2.45595 2.75155 5.55178 0.335721 8.99762 0.333221H9.00262ZM9.00012 1.58322C6.13678 1.58405 3.52512 3.61989 1.97512 7.04322C3.52512 10.4674 6.13595 12.5032 9.00012 12.5041C11.8643 12.5032 14.4751 10.4674 16.0251 7.04322C14.4751 3.61989 11.8643 1.58405 9.00012 1.58322ZM8.99987 3.78389C10.7974 3.78389 12.2599 5.24639 12.2599 7.04389C12.2599 8.84055 10.7974 10.3022 8.99987 10.3022C7.20237 10.3022 5.7407 8.84055 5.7407 7.04389C5.7407 5.24639 7.20237 3.78389 8.99987 3.78389ZM8.99987 5.03389C7.89153 5.03389 6.9907 5.93555 6.9907 7.04389C6.9907 8.15139 7.89153 9.05222 8.99987 9.05222C10.1082 9.05222 11.0099 8.15139 11.0099 7.04389C11.0099 5.93555 10.1082 5.03389 8.99987 5.03389Z" fill="black"/>
</svg>
