<svg width="20" height="19" viewBox="0 0 20 19" fill="none" xmlns="http://www.w3.org/2000/svg">
<path d="M10 18.3437C9.35502 17.7717 8.62602 17.1767 7.85502 16.5437H7.84502C5.13002 14.3237 2.05302 11.8117 0.694023 8.80165C0.24754 7.84338 0.0109268 6.80078 1.1406e-05 5.74365C-0.00297039 4.29314 0.578794 2.90264 1.61383 1.88642C2.64887 0.870203 4.04981 0.314048 5.50002 0.343654C6.68065 0.345518 7.83586 0.686735 8.82802 1.32665C9.26399 1.60962 9.65844 1.95191 10 2.34365C10.3435 1.95345 10.7381 1.61136 11.173 1.32665C12.1648 0.686608 13.3197 0.345372 14.5 0.343654C15.9502 0.314048 17.3512 0.870203 18.3862 1.88642C19.4213 2.90264 20.003 4.29314 20 5.74365C19.9898 6.80247 19.7532 7.84685 19.306 8.80665C17.947 11.8167 14.871 14.3277 12.156 16.5437L12.146 16.5517C11.374 17.1807 10.646 17.7757 10.001 18.3517L10 18.3437ZM5.50002 2.34365C4.56853 2.332 3.67009 2.6885 3.00002 3.33565C2.35441 3.96982 1.99358 4.8387 1.99994 5.74365C2.01135 6.51415 2.18585 7.27351 2.51202 7.97165C3.15353 9.27036 4.01913 10.4457 5.06902 11.4437C6.06002 12.4437 7.20002 13.4117 8.18602 14.2257C8.45902 14.4507 8.73702 14.6777 9.01502 14.9047L9.19002 15.0477C9.45702 15.2657 9.73302 15.4917 10 15.7137L10.013 15.7017L10.019 15.6967H10.025L10.034 15.6897H10.039H10.044L10.062 15.6747L10.103 15.6417L10.11 15.6357L10.121 15.6277H10.127L10.136 15.6197L10.8 15.0747L10.974 14.9317C11.255 14.7027 11.533 14.4757 11.806 14.2507C12.792 13.4367 13.933 12.4697 14.924 11.4647C15.9741 10.4672 16.8397 9.29217 17.481 7.99365C17.8131 7.28945 17.9901 6.52216 18.0001 5.74365C18.0042 4.84149 17.6435 3.97595 17 3.34365C16.3312 2.69357 15.4326 2.33414 14.5 2.34365C13.3619 2.33398 12.274 2.81102 11.51 3.65465L10 5.39465L8.49002 3.65465C7.72609 2.81102 6.6381 2.33398 5.50002 2.34365Z" fill="#B08F76"/>
</svg>
