<svg width="20" height="20" viewBox="0 0 20 20" fill="none" xmlns="http://www.w3.org/2000/svg">
<path d="M8.03398 16.7H8.02344C5.31998 14.4886 2.42882 12.0853 1.14973 9.25225L1.14976 9.25224L1.14724 9.24683C0.731133 8.35375 0.510476 7.38212 0.500007 6.39692C0.497853 5.0817 1.02559 3.82102 1.96413 2.89955C2.90315 1.9776 4.17413 1.47304 5.48982 1.49989L5.48982 1.49998L5.49923 1.5C6.58379 1.50171 7.645 1.8151 8.55649 2.40284C8.95326 2.66046 9.31226 2.97203 9.62316 3.3286L9.99824 3.75876L10.3753 3.33037C10.6887 2.97433 11.0487 2.66214 11.4455 2.40224C12.3563 1.81477 13.4169 1.50158 14.5008 1.5V1.50009L14.5102 1.49989C15.8259 1.47304 17.0969 1.9776 18.0359 2.89955C18.9745 3.82102 19.5022 5.08171 19.5 6.39695C19.4903 7.38383 19.2696 8.35723 18.8528 9.25184L18.8528 9.25183L18.8503 9.25725C17.5498 12.1378 14.5834 14.5734 11.8417 16.8111L11.8337 16.8175L11.8337 16.8175L11.8302 16.8204C11.1889 17.3428 10.571 17.8476 10.0042 18.3393C9.48483 17.8907 8.92168 17.4286 8.33856 16.95C8.28331 16.9047 8.22788 16.8592 8.1723 16.8136L8.03398 16.7ZM2.65267 3.63235L2.65266 3.63234L2.64965 3.6353C1.90744 4.36434 1.49264 5.3632 1.49994 6.40351L1.49999 6.4074C1.51245 7.24852 1.70294 8.07748 2.05902 8.83964L2.05892 8.83969L2.06373 8.84944C2.73018 10.1986 3.62904 11.4199 4.71912 12.4572C5.72748 13.4741 6.88142 14.4533 7.8677 15.2676L7.86802 15.2678C8.14178 15.4935 8.42038 15.721 8.69795 15.9476L8.69864 15.9482L8.69878 15.9483L8.87364 16.0912L8.8738 16.0913C9.14058 16.3091 9.41515 16.534 9.68036 16.7545L10.0172 17.0346L10.2215 16.846H10.225L10.2994 16.784H10.3171L10.4592 16.6577L10.4609 16.6562L11.1172 16.1175L11.1175 16.1173L11.2899 15.9756C11.2902 15.9754 11.2904 15.9752 11.2907 15.9749C11.5716 15.746 11.8502 15.5185 12.124 15.2928L12.1243 15.2926C13.1101 14.4788 14.2655 13.5002 15.2743 12.4779C16.3644 11.4411 17.2631 10.2203 17.9293 8.87142L17.9294 8.87145L17.9333 8.86326C18.2959 8.09431 18.4891 7.25647 18.5 6.4064L18.5001 6.40229C18.5048 5.36521 18.0902 4.37021 17.3505 3.64334L17.3485 3.64147C16.5863 2.90053 15.5625 2.49037 14.4996 2.49998C13.2205 2.49044 11.9981 3.02713 11.1394 3.97539L11.1393 3.97531L11.1324 3.98329L10 5.28814L8.86765 3.98329L8.86774 3.98321L8.86065 3.97539C8.0021 3.02728 6.77987 2.4906 5.50101 2.49998C4.43965 2.48808 3.41626 2.89488 2.65267 3.63235Z" fill="#130F26" stroke="#130F26"/>
</svg>
