<svg width="26" height="26" viewBox="0 0 26 26" fill="none" xmlns="http://www.w3.org/2000/svg">
<path fill-rule="evenodd" clip-rule="evenodd" d="M0.5 5.5C0.5 4.17392 1.02678 2.90215 1.96447 1.96447C2.90215 1.02678 4.17392 0.5 5.5 0.5H20.5C21.8261 0.5 23.0979 1.02678 24.0355 1.96447C24.9732 2.90215 25.5 4.17392 25.5 5.5V20.5C25.5 21.8261 24.9732 23.0979 24.0355 24.0355C23.0979 24.9732 21.8261 25.5 20.5 25.5H5.5C4.17392 25.5 2.90215 24.9732 1.96447 24.0355C1.02678 23.0979 0.5 21.8261 0.5 20.5V5.5ZM5.5 3C4.83696 3 4.20107 3.26339 3.73223 3.73223C3.26339 4.20107 3 4.83696 3 5.5V20.5C3 21.163 3.26339 21.7989 3.73223 22.2678C4.20107 22.7366 4.83696 23 5.5 23H20.5C21.163 23 21.7989 22.7366 22.2678 22.2678C22.7366 21.7989 23 21.163 23 20.5V5.5C23 4.83696 22.7366 4.20107 22.2678 3.73223C21.7989 3.26339 21.163 3 20.5 3H5.5ZM13 9.25C12.0054 9.25 11.0516 9.64509 10.3483 10.3483C9.64509 11.0516 9.25 12.0054 9.25 13C9.25 13.9946 9.64509 14.9484 10.3483 15.6517C11.0516 16.3549 12.0054 16.75 13 16.75C13.9946 16.75 14.9484 16.3549 15.6517 15.6517C16.3549 14.9484 16.75 13.9946 16.75 13C16.75 12.0054 16.3549 11.0516 15.6517 10.3483C14.9484 9.64509 13.9946 9.25 13 9.25ZM6.75 13C6.75 11.3424 7.40848 9.75268 8.58058 8.58058C9.75268 7.40848 11.3424 6.75 13 6.75C14.6576 6.75 16.2473 7.40848 17.4194 8.58058C18.5915 9.75268 19.25 11.3424 19.25 13C19.25 14.6576 18.5915 16.2473 17.4194 17.4194C16.2473 18.5915 14.6576 19.25 13 19.25C11.3424 19.25 9.75268 18.5915 8.58058 17.4194C7.40848 16.2473 6.75 14.6576 6.75 13ZM19.875 8C20.3723 8 20.8492 7.80246 21.2008 7.45083C21.5525 7.09919 21.75 6.62228 21.75 6.125C21.75 5.62772 21.5525 5.15081 21.2008 4.79917C20.8492 4.44754 20.3723 4.25 19.875 4.25C19.3777 4.25 18.9008 4.44754 18.5492 4.79917C18.1975 5.15081 18 5.62772 18 6.125C18 6.62228 18.1975 7.09919 18.5492 7.45083C18.9008 7.80246 19.3777 8 19.875 8Z" fill="#676767"/>
</svg>
