<svg width="25" height="26" viewBox="0 0 25 26" fill="none" xmlns="http://www.w3.org/2000/svg">
<path d="M12.3444 25.0017C19.3222 25.0017 25 20.2858 25 14.4869C25 8.72898 16.0139 0.00170898 12.3444 0.00170898C8.85833 0.00170898 0 8.88694 0 14.4869C0 20.2858 5.5375 25.0017 12.3444 25.0017Z" fill="#0E0D0D"/>
<path fill-rule="evenodd" clip-rule="evenodd" d="M11.5987 13.1188C11.6375 12.3662 11.6764 11.6531 11.7541 11.1779C11.9488 9.63331 12.3766 9.11844 12.7656 8.76187C13.3492 8.24699 14.0106 7.96979 14.8274 7.96979C16.6169 7.96979 18.2507 9.31643 17.9395 10.782C17.9007 10.98 17.8228 11.0988 17.8228 11.1779C18.0564 9.98988 17.0837 8.60347 15.5278 8.60347C14.244 8.60347 12.8824 8.99955 12.8824 10.8612C12.8824 11.7325 13.388 12.9603 15.5278 12.8811C16.3836 12.8414 18.2508 12.5246 18.2508 10.6631C18.2508 8.99955 16.9281 7.53394 12.9992 7.53394C8.68115 7.53394 6.15256 9.67291 5.95801 13.1187C5.95801 13.2375 5.95801 13.3959 5.95801 13.5543C5.95801 15.1387 6.42497 16.4854 7.28077 17.5152C7.30892 17.5486 7.33786 17.5817 7.36696 17.6144C7.68364 17.9708 8.05125 18.2884 8.46772 18.5629C9.646 19.3398 11.2181 19.7728 13.1547 19.7728C15.8779 19.7728 17.1614 18.5451 17.7451 17.5152C18.0174 17.04 18.1341 16.6042 18.2119 16.3666C18.3286 15.6535 17.9785 15.6932 17.9396 16.2081C17.9007 16.6834 17.7062 17.1191 17.4728 17.5152C16.8114 18.5847 15.4888 19.4164 14.1662 19.4164C13.8045 19.3903 13.5974 19.381 13.3279 19.2622C13.1918 19.2019 13.0394 19.1138 12.8436 18.9806C12.5323 18.7826 12.2212 18.2677 11.9878 17.5152C11.9099 17.3567 11.871 17.1585 11.8322 16.9606C11.6375 16.0102 11.5598 14.4655 11.5987 13.1188Z" fill="white"/>
</svg>
