<svg width="18" height="18" viewBox="0 0 18 18" fill="none" xmlns="http://www.w3.org/2000/svg">
<path d="M11.71 11.5H12.2926L16.7832 15.9996L15.9996 16.7832L11.5 12.2926V11.71V11.5082L11.3599 11.3629L11.2786 11.2786L11.3629 11.3599L11.5082 11.5H11.71ZM10.7519 10.7519L10.4041 11.0508C9.35116 11.956 7.98574 12.5 6.5 12.5C3.18614 12.5 0.5 9.81386 0.5 6.5C0.5 3.18614 3.18614 0.5 6.5 0.5C9.81386 0.5 12.5 3.18614 12.5 6.5C12.5 7.98574 11.956 9.35116 11.0508 10.4041L10.7519 10.7519ZM1.5 6.5C1.5 9.26614 3.73386 11.5 6.5 11.5C9.26614 11.5 11.5 9.26614 11.5 6.5C11.5 3.73386 9.26614 1.5 6.5 1.5C3.73386 1.5 1.5 3.73386 1.5 6.5Z" fill="#130F26" stroke="#130F26"/>
</svg>
