<svg width="24" height="24" viewBox="0 0 24 24" fill="none" xmlns="http://www.w3.org/2000/svg">
<path d="M18.1 18.6H18.6V18.1V17C18.6 16.7295 18.4457 16.5182 18.3307 16.3909C18.2013 16.2475 18.0306 16.1118 17.8421 15.986C17.4624 15.7325 16.9426 15.4745 16.3437 15.2435C15.1456 14.7814 13.5591 14.4 12 14.4C10.4409 14.4 8.8544 14.7814 7.65632 15.2435C7.05741 15.4745 6.53759 15.7325 6.15785 15.986C5.96945 16.1118 5.79872 16.2475 5.66925 16.3909C5.55427 16.5182 5.4 16.7295 5.4 17V18.1V18.6H5.9H18.1ZM14.6 8C14.6 6.56386 13.4361 5.4 12 5.4C10.5639 5.4 9.4 6.56386 9.4 8C9.4 9.43614 10.5639 10.6 12 10.6C13.4361 10.6 14.6 9.43614 14.6 8ZM8.5 8C8.5 6.06614 10.0661 4.5 12 4.5C13.9339 4.5 15.5 6.06614 15.5 8C15.5 9.93386 13.9339 11.5 12 11.5C10.0661 11.5 8.5 9.93386 8.5 8ZM4.5 17C4.5 16.5186 4.73716 16.06 5.21364 15.6202C5.69352 15.1773 6.38208 14.7882 7.18469 14.4666C8.79071 13.8233 10.7275 13.5 12 13.5C13.2725 13.5 15.2093 13.8233 16.8153 14.4666C17.6179 14.7882 18.3065 15.1773 18.7864 15.6202C19.2628 16.06 19.5 16.5186 19.5 17V19.5H4.5V17Z" fill="#130F26" stroke="#130F26"/>
</svg>
