<svg width="16" height="13" viewBox="0 0 16 13" fill="none" xmlns="http://www.w3.org/2000/svg">
<path d="M1.7 8.46657L7.16667 6.03324V4.83324C7.16667 4.37491 7.54167 3.99991 8 3.99991C8.45833 3.99991 8.83333 3.62491 8.83333 3.16657C8.83333 2.70824 8.45833 2.33324 8 2.33324C7.54167 2.33324 7.16667 2.70824 7.16667 3.16657H5.5C5.5 1.63324 6.88333 0.416572 8.46667 0.708239C9.45 0.891572 10.2583 1.68324 10.45 2.66657C10.7 3.96657 9.95 5.11657 8.83333 5.51657V6.04157L14.3 8.47491C15.0333 8.79157 15.5 9.51657 15.5 10.3082V10.3166C15.5 11.4332 14.6 12.3332 13.4833 12.3332H12.1667H3.83333H2.51667C1.4 12.3332 0.5 11.4332 0.5 10.3166V10.3082C0.5 9.51657 0.966667 8.79157 1.7 8.46657ZM2.51667 10.6666H3.83333L11.75 10.6666L12.1667 10.6666H13.4833C13.675 10.6666 13.8333 10.5082 13.8333 10.3082C13.8333 10.1666 13.75 10.0416 13.625 9.99157L8 7.49157L2.375 9.99157C2.25 10.0499 2.16667 10.1749 2.16667 10.3166C2.16667 10.5082 2.325 10.6666 2.51667 10.6666Z" fill="#9A9A9A"/>
</svg>
