<svg width="14" height="14" viewBox="0 0 14 14" fill="none" xmlns="http://www.w3.org/2000/svg">
<path d="M8.01212 7L13.1391 0.888672C13.225 0.78711 13.1527 0.632812 13.0199 0.632812H11.4613C11.3695 0.632812 11.2816 0.673828 11.2211 0.744141L6.99259 5.78516L2.76407 0.744141C2.70548 0.673828 2.61759 0.632812 2.52384 0.632812H0.965244C0.832432 0.632812 0.760166 0.78711 0.846104 0.888672L5.97306 7L0.846104 13.1113C0.826853 13.134 0.814503 13.1617 0.810519 13.1911C0.806535 13.2206 0.811086 13.2505 0.82363 13.2775C0.836174 13.3044 0.856185 13.3272 0.881287 13.3431C0.90639 13.359 0.935528 13.3674 0.965244 13.3672H2.52384C2.61563 13.3672 2.70353 13.3262 2.76407 13.2559L6.99259 8.21484L11.2211 13.2559C11.2797 13.3262 11.3676 13.3672 11.4613 13.3672H13.0199C13.1527 13.3672 13.225 13.2129 13.1391 13.1113L8.01212 7Z" fill="black"/>
</svg>
