<svg width="9" height="9" viewBox="0 0 9 9" fill="none" xmlns="http://www.w3.org/2000/svg">
<path d="M5.15796 4.5L8.49048 0.527637C8.54634 0.461621 8.49937 0.361328 8.41304 0.361328H7.39995C7.34029 0.361328 7.28316 0.387988 7.2438 0.433691L4.49527 3.71035L1.74673 0.433691C1.70865 0.387988 1.65152 0.361328 1.59058 0.361328H0.577494C0.491166 0.361328 0.444193 0.461621 0.500053 0.527637L3.83257 4.5L0.500053 8.47236C0.48754 8.48708 0.479512 8.50507 0.476923 8.52422C0.474334 8.54336 0.477291 8.56284 0.485445 8.58035C0.493599 8.59786 0.506606 8.61266 0.522922 8.623C0.539239 8.63334 0.558179 8.63878 0.577494 8.63867H1.59058C1.65025 8.63867 1.70738 8.61201 1.74673 8.56631L4.49527 5.28965L7.2438 8.56631C7.28189 8.61201 7.33902 8.63867 7.39995 8.63867H8.41304C8.49937 8.63867 8.54634 8.53838 8.49048 8.47236L5.15796 4.5Z" fill="white"/>
</svg>
